<?xml version="1.0" encoding="UTF-8"?>
<svg id="Layer_2" data-name="Layer 2" xmlns="http://www.w3.org/2000/svg" xmlns:xlink="http://www.w3.org/1999/xlink" viewBox="0 0 1682.83 159.52">
  <defs>
    <style>
      .cls-1 {
        fill: url(#linear-gradient);
      }

      .cls-2 {
        fill: #fff;
      }
    </style>
    <linearGradient id="linear-gradient" x1="126.27" y1="143.33" x2="169.3" y2="97.88" gradientUnits="userSpaceOnUse">
      <stop offset="0" stop-color="#fff" stop-opacity="0"/>
      <stop offset=".09" stop-color="#fff" stop-opacity=".02"/>
      <stop offset=".2" stop-color="#fff" stop-opacity=".09"/>
      <stop offset=".33" stop-color="#fff" stop-opacity=".19"/>
      <stop offset=".47" stop-color="#fff" stop-opacity=".34"/>
      <stop offset=".62" stop-color="#fff" stop-opacity=".53"/>
      <stop offset=".78" stop-color="#fff" stop-opacity=".76"/>
      <stop offset=".92" stop-color="#fff"/>
    </linearGradient>
  </defs>
  <g id="_Слой_1" data-name="Слой 1">
    <g>
      <g>
        <polygon class="cls-1" points="130.66 79.66 154.74 121.34 202.97 121.34 178.89 79.66 130.66 79.66"/>
        <polygon class="cls-2" points="227.1 79.66 178.86 79.66 154.9 38.16 203.13 38.16 227.1 79.66"/>
        <path class="cls-2" d="M10.69,39.88h0c-14.25,24.69-14.24,55.09,0,79.77h0c14.25,24.67,40.57,39.87,69.07,39.87h51.61l23.38-38.16h-75c-14.86,0-28.59-7.93-36.02-20.8h0c-7.43-12.87-7.43-28.72,0-41.59h0c7.43-12.89,21.16-20.82,36.03-20.82h75.15S132.86,0,132.86,0h-53.11C51.27,0,24.94,15.2,10.69,39.88Z"/>
      </g>
      <g>
        <path class="cls-2" d="M313.12,63.06v33.41c0,17.26,13.73,24.5,32.29,24.5,14.1,0,26.72-2.6,36.19-8.54l9.47,20.97c-13.36,8.16-25.8,11.32-47.51,11.32-33.78,0-58.65-15.59-58.65-46.77v-36.56c0-28.95,26.91-46.58,58.46-46.58,21.34,0,35.08,3.53,49,12.62l-10.39,20.41c-9.84-5.75-21.16-9.09-36.75-9.09-17.07,0-32.11,8.72-32.11,24.31Z"/>
        <path class="cls-2" d="M421.69,142.86l52.71-126.2h29.51l53.82,126.2h-30.81l-37.67-94.84-36.93,94.84h-30.62Z"/>
        <path class="cls-2" d="M678.63,90.15l32.11,52.71h-30.81l-27.84-46.58h-32.11v46.58h-28.21V16.66h66.81c28.95,0,48.06,11.88,48.06,36.56v4.27c0,17.45-11.32,28.21-28.02,32.66ZM619.99,74.75h37.12c10.76-.19,21.16-4.83,21.16-15.03v-4.64c0-9.84-8.72-15.22-21.53-15.22h-36.75v34.89Z"/>
        <path class="cls-2" d="M739.32,142.86l52.71-126.2h29.51l53.82,126.2h-30.81l-37.67-94.84-36.93,94.84h-30.62Z"/>
        <path class="cls-2" d="M941.24,16.66v103.19h75.72v23.01h-103.93V16.66h28.21Z"/>
        <path class="cls-2" d="M1083.95,96.28l-51.96-79.62h34.33l32.11,52.89,32.29-52.89h34.52l-52.71,79.8v46.4h-28.58v-46.58Z"/>
        <path class="cls-2" d="M1195.12,40.04v-23.38h123.41v23.38h-48.07v102.81h-28.21V40.04h-47.14Z"/>
        <path class="cls-2" d="M1359.15,16.66h28.21v126.2h-28.21V16.66Z"/>
        <path class="cls-2" d="M1455.86,63.06v33.41c0,17.26,13.73,24.5,32.29,24.5,14.1,0,26.73-2.6,36.19-8.54l9.46,20.97c-13.36,8.16-25.8,11.32-47.51,11.32-33.78,0-58.65-15.59-58.65-46.77v-36.56c0-28.95,26.91-46.58,58.46-46.58,21.34,0,35.08,3.53,49,12.62l-10.39,20.41c-9.84-5.75-21.16-9.09-36.75-9.09-17.07,0-32.11,8.72-32.11,24.31Z"/>
        <path class="cls-2" d="M1682.83,105.74c.19,25.43-24.5,38.6-53.63,38.6-20.97,0-44.91-7.42-58.65-20.04l11.14-18.56c13.36,9.09,28.95,15.59,47.51,15.59s24.31-5.94,24.31-14.48-4.83-12.62-30.81-16.52c-33.96-5.38-49-15.22-49.18-36.75-.37-25.43,25.8-38.6,52.89-38.6,20.41,0,36.37,4.27,54.19,15.59l-10.58,20.41c-16.15-9.28-27.65-12.62-43.61-12.62s-23.76,6.31-23.76,14.85,5.75,12.25,29.69,15.22c30.44,3.9,50.29,12.81,50.48,37.3Z"/>
      </g>
    </g>
  </g>
</svg>